<svg xmlns="http://www.w3.org/2000/svg" width="660" height="260" font-family="sans-serif">
<rect width="660" height="260" fill="white"/>
<text x="330" y="18" text-anchor="middle" font-size="13" font-weight="bold">Supercap voltage over 7 days, TX/30min (SIMULATED)</text>
<line x1="60" y1="168.0" x2="644" y2="168.0" stroke="#e5e7eb"/>
<text x="54" y="172.0" text-anchor="end" font-size="10">2.0V</text>
<line x1="60" y1="122.0" x2="644" y2="122.0" stroke="#e5e7eb"/>
<text x="54" y="126.0" text-anchor="end" font-size="10">2.5V</text>
<line x1="60" y1="76.0" x2="644" y2="76.0" stroke="#e5e7eb"/>
<text x="54" y="80.0" text-anchor="end" font-size="10">3.0V</text>
<line x1="60" y1="48.400000000000006" x2="644" y2="48.400000000000006" stroke="#e5e7eb"/>
<text x="54" y="52.400000000000006" text-anchor="end" font-size="10">3.3V</text>
<polyline points="60.0,110.5 63.49700598802395,128.716 66.9940119760479,128.716 70.49101796407186,128.716 73.9880239520958,128.716 77.48502994011976,128.716 80.98203592814372,128.716 84.47904191616766,128.716 87.97604790419162,128.716 91.47305389221557,128.716 94.97005988023952,128.716 98.46706586826348,128.716 101.96407185628743,128.716 105.46107784431138,128.716 108.95808383233532,128.716 112.45508982035929,128.716 115.95209580838323,128.716 119.44910179640718,128.716 122.94610778443115,128.716 126.44311377245509,128.716 129.94011976047904,128.716 133.43712574850298,128.716 136.93413173652695,128.716 140.4311377245509,128.716 143.92814371257487,128.716 147.4251497005988,128.716 150.92215568862275,128.716 154.4191616766467,128.716 157.91616766467064,128.716 161.4131736526946,128.716 164.91017964071858,128.716 168.40718562874252,128.716 171.90419161676647,128.716 175.4011976047904,128.716 178.89820359281435,128.716 182.3952095808383,128.716 185.8922155688623,128.716 189.3892215568862,128.716 192.88622754491018,128.716 196.38323353293413,128.716 199.88023952095807,128.716 203.37724550898204,128.716 206.874251497006,128.716 210.37125748502993,128.716 213.8682634730539,128.716 217.36526946107784,128.716 220.8622754491018,128.716 224.35928143712576,128.716 227.8562874251497,128.716 231.35329341317365,128.716 234.8502994011976,128.716 238.34730538922156,128.716 241.8443113772455,128.716 245.34131736526948,128.716 248.83832335329342,128.716 252.33532934131736,128.716 255.8323353293413,128.716 259.3293413173653,128.716 262.8263473053892,128.716 266.3233532934132,128.716 269.82035928143716,128.716 273.3173652694611,128.716 276.81437125748505,128.716 280.311377245509,128.716 283.80838323353294,128.716 287.3053892215569,128.716 290.8023952095808,128.716 294.29940119760477,128.716 297.7964071856287,128.716 301.29341317365265,128.716 304.7904191616766,128.716 308.28742514970065,128.716 311.7844311377246,128.716 315.28143712574854,128.716 318.7784431137724,128.716 322.2754491017964,128.716 325.77245508982037,128.716 329.2694610778443,128.716 332.76646706586826,128.716 336.2634730538922,128.716 339.76047904191614,128.716 343.25748502994014,128.716 346.7544910179641,128.716 350.251497005988,128.716 353.748502994012,128.716 357.2455089820359,128.716 360.74251497005986,128.716 364.23952095808386,128.716 367.7365269461078,128.716 371.23353293413174,128.716 374.7305389221557,128.716 378.22754491017963,128.716 381.7245508982036,128.716 385.2215568862275,128.716 388.7185628742515,128.716 392.21556886227546,128.716 395.7125748502994,128.716 399.20958083832335,128.716 402.7065868263473,128.716 406.2035928143713,128.716 409.7005988023952,128.716 413.1976047904192,128.716 416.6946107784431,128.716 420.19161676646706,128.716 423.688622754491,128.716 427.18562874251495,128.716 430.68263473053895,128.716 434.1796407185629,128.716 437.67664670658684,128.716 441.1736526946108,128.716 444.6706586826347,128.716 448.1676646706587,128.716 451.6646706586826,128.716 455.1616766467066,128.716 458.65868263473055,128.716 462.1556886227545,128.716 465.65269461077844,128.716 469.1497005988024,128.716 472.6467065868264,128.716 476.14371257485027,128.716 479.64071856287427,128.716 483.1377245508982,128.716 486.63473053892216,128.716 490.1317365269461,128.716 493.62874251497004,128.716 497.12574850299404,128.716 500.62275449101793,128.716 504.11976047904193,128.716 507.6167664670659,128.716 511.1137724550898,128.716 514.6107784431138,128.716 518.1077844311377,128.716 521.6047904191616,128.716 525.1017964071856,128.716 528.5988023952095,128.716 532.0958083832336,128.716 535.5928143712574,128.716 539.0898203592815,128.716 542.5868263473053,128.716 546.0838323353294,128.716 549.5808383233532,128.716 553.0778443113772,128.716 556.5748502994013,128.716 560.0718562874251,128.716 563.5688622754492,128.716 567.065868263473,128.716 570.5628742514971,128.716 574.059880239521,128.716 577.5568862275449,128.716 581.0538922155689,128.716 584.5508982035929,128.716 588.0479041916168,128.716 591.5449101796407,128.716 595.0419161676647,128.716 598.5389221556886,128.716 602.0359281437126,128.716 605.5329341317365,128.716 609.0299401197605,128.716 612.5269461077844,128.716 616.0239520958083,128.716 619.5209580838323,128.716 623.0179640718563,128.716 626.5149700598803,128.716 630.0119760479042,128.716 633.5089820359282,128.716 637.0059880239521,128.716 640.502994011976,128.716 644.0,128.716" fill="none" stroke="#16a34a" stroke-width="1.5"/>
<text x="60.0" y="230" text-anchor="middle" font-size="10">d0</text>
<text x="143.92814371257487" y="230" text-anchor="middle" font-size="10">d1</text>
<text x="227.8562874251497" y="230" text-anchor="middle" font-size="10">d2</text>
<text x="311.7844311377246" y="230" text-anchor="middle" font-size="10">d3</text>
<text x="395.7125748502994" y="230" text-anchor="middle" font-size="10">d4</text>
<text x="479.64071856287427" y="230" text-anchor="middle" font-size="10">d5</text>
<text x="563.5688622754492" y="230" text-anchor="middle" font-size="10">d6</text>
<text x="647.497005988024" y="230" text-anchor="middle" font-size="10">d7</text>
</svg>